<svg width="80" height="80" viewBox="0 0 80 80" fill="none" xmlns="http://www.w3.org/2000/svg">
<path d="M76.2038 0H3.79622C1.69963 0 0 1.69963 0 3.79622V76.2038C0 78.3004 1.69963 80 3.79622 80H76.2038C78.3004 80 80 78.3004 80 76.2038V3.79622C80 1.69963 78.3004 0 76.2038 0Z" fill="#8CC84B"/>
<path d="M40.2399 56.943H33.34C32.8898 56.9499 32.4552 56.7779 32.1318 56.4647C31.8083 56.1515 31.6226 55.7228 31.615 55.2727C31.6226 54.8225 31.8083 54.3938 32.1318 54.0806C32.4552 53.7674 32.8898 53.5954 33.34 53.6023H38.5149V50.2616H26.4367C25.0861 50.282 23.7828 49.7658 22.8121 48.8265C21.8415 47.8871 21.2828 46.6012 21.2588 45.2506V28.5473C21.2826 27.1969 21.841 25.9111 22.8114 24.9717C23.7818 24.0324 25.0848 23.5161 26.4352 23.5363H54.0438C55.3945 23.5153 56.6981 24.0313 57.6688 24.9708C58.6394 25.9103 59.1978 27.1966 59.221 28.5473V45.2506C59.1976 46.6011 58.6396 47.8872 57.6691 48.8266C56.6987 49.7661 55.3951 50.2822 54.0446 50.2616H41.9649V53.6023H47.142C47.365 53.5987 47.5868 53.639 47.7941 53.721C48.0015 53.803 48.1904 53.925 48.3506 54.0802C48.5108 54.2353 48.639 54.4204 48.7276 54.625C48.8162 54.8296 48.8635 55.0497 48.867 55.2727C48.8596 55.7229 48.6741 56.1517 48.3506 56.4649C48.0271 56.7781 47.5922 56.9501 47.142 56.943H40.2399ZM24.7117 28.5473V45.2506C24.7195 45.7007 24.9055 46.1293 25.2289 46.4425C25.5523 46.7556 25.9866 46.9277 26.4367 46.921H54.0453C54.4954 46.9275 54.9297 46.7553 55.2531 46.4423C55.5766 46.1292 55.7628 45.7007 55.771 45.2506V28.5473C55.7632 28.0971 55.577 27.6683 55.2535 27.3552C54.9299 27.042 54.4955 26.87 54.0453 26.8769H26.4367C25.9863 26.8696 25.5515 27.0415 25.2278 27.3547C24.904 27.6679 24.7178 28.0969 24.7102 28.5473H24.7117Z" fill="white"/>
<path d="M31.9505 37.1125L36.0807 38.5687V40.5974L29.842 37.953V36.2409L36.0807 33.5964V35.6251L31.9505 37.1125ZM39.1526 42.4963H37.5954L41.479 31.04H43.0369L39.1526 42.4963ZM49 37.0905L44.79 35.6198V33.6055L51.1016 36.25V37.953L44.79 40.605V38.5831L49 37.0905Z" fill="white" stroke="white" stroke-miterlimit="10"/>
</svg>
