<svg width="80" height="80" viewBox="0 0 80 80" fill="none" xmlns="http://www.w3.org/2000/svg">
<path d="M76.2008 0H3.79925C1.70098 0 0 1.70098 0 3.79925V76.2008C0 78.299 1.70098 80 3.79925 80H76.2008C78.299 80 80 78.299 80 76.2008V3.79925C80 1.70098 78.299 0 76.2008 0Z" fill="#2AC7E3"/>
<path d="M40.272 56.9886H33.3636C32.9129 56.9955 32.4777 56.8235 32.1537 56.5101C31.8297 56.1967 31.6428 55.7677 31.6346 55.317C31.6422 54.8661 31.8288 54.4366 32.153 54.1232C32.4771 53.8097 32.9127 53.6378 33.3636 53.6453H38.5419V50.302H26.4556C25.1043 50.3215 23.8005 49.8046 22.8296 48.8646C21.8587 47.9246 21.2999 46.6381 21.2758 45.2869V28.5703C21.2995 27.2188 21.8584 25.932 22.8296 24.9919C23.8007 24.0518 25.1048 23.5351 26.4563 23.5553H54.0877C55.4391 23.5353 56.7433 24.052 57.7144 24.9921C58.6855 25.9322 59.2442 27.2189 59.2682 28.5703V45.2869C59.2436 46.638 58.6848 47.9243 57.714 48.8642C56.7432 49.8041 55.4395 50.3211 54.0884 50.302H41.9998V53.6453H47.1804C47.4036 53.6416 47.6254 53.6819 47.833 53.7639C48.0406 53.8459 48.2303 53.968 48.3907 54.1232C48.5511 54.2785 48.6792 54.4638 48.768 54.6686C48.8567 54.8735 48.9043 55.0938 48.9079 55.317C48.9001 55.7675 48.7137 56.1966 48.3899 56.51C48.0661 56.8234 47.631 56.9955 47.1804 56.9886H40.272ZM24.7285 28.5703V45.2869C24.7367 45.7374 24.9231 46.1662 25.2468 46.4795C25.5705 46.7929 26.0051 46.9651 26.4556 46.9586H54.0869C54.5373 46.9649 54.9718 46.7926 55.2953 46.4793C55.6189 46.166 55.8051 45.7373 55.8133 45.2869V28.5703C55.8051 28.12 55.6189 27.6912 55.2953 27.3779C54.9718 27.0646 54.5373 26.8923 54.0869 26.8986H26.4556C26.0052 26.8923 25.5707 27.0646 25.2472 27.3779C24.9236 27.6912 24.7374 28.12 24.7292 28.5703H24.7285Z" fill="#13131A"/>
<path d="M40.272 56.9887H33.3666C32.9161 56.9956 32.4811 56.8234 32.1574 56.51C31.8337 56.1966 31.6478 55.7675 31.6402 55.317C31.6478 54.8665 31.8337 54.4374 32.1574 54.124C32.4811 53.8106 32.9161 53.6384 33.3666 53.6453H38.5456V50.302H26.4578C25.1061 50.3223 23.8018 49.8058 22.8303 48.8657C21.8589 47.9256 21.2997 46.6386 21.2758 45.287V28.5703C21.2995 27.2189 21.8584 25.932 22.8296 24.9919C23.8007 24.0518 25.1048 23.5352 26.4563 23.5553H54.0869C55.4387 23.5344 56.7433 24.0507 57.7148 24.991C58.6862 25.9312 59.245 27.2185 59.2682 28.5703V45.287C59.2448 46.6386 58.6864 47.9257 57.7151 48.8658C56.7439 49.806 55.4393 50.3225 54.0877 50.302H41.9984V53.6453H47.1796C47.4028 53.6417 47.6248 53.6821 47.8323 53.7642C48.0398 53.8462 48.2289 53.9683 48.3892 54.1236C48.5495 54.2788 48.6778 54.4641 48.7665 54.6689C48.8552 54.8737 48.9024 55.0939 48.906 55.317C48.8986 55.7676 48.7129 56.1968 48.3892 56.5102C48.0654 56.8237 47.6302 56.9958 47.1796 56.9887H40.272ZM24.7314 28.5703V45.287C24.7392 45.7374 24.9254 46.1664 25.249 46.4798C25.5727 46.7932 26.0073 46.9654 26.4578 46.9587H54.0884C54.5389 46.9652 54.9735 46.7929 55.2972 46.4796C55.6209 46.1663 55.8073 45.7374 55.8155 45.287V28.5703C55.8077 28.1197 55.6214 27.6907 55.2976 27.3773C54.9738 27.0639 54.539 26.8917 54.0884 26.8986H26.4578C26.007 26.8913 25.5719 27.0633 25.2479 27.3768C24.9239 27.6902 24.7376 28.1195 24.73 28.5703H24.7314ZM46.3508 43.3114C46.1493 43.3114 45.9561 43.2313 45.8136 43.0888C45.6711 42.9463 45.5909 42.7531 45.5909 42.5515V37.9924C45.5909 37.7909 45.6711 37.5976 45.8136 37.4551C45.9561 37.3127 46.1493 37.2326 46.3508 37.2326H49.3902C49.5917 37.2326 49.7849 37.3127 49.9274 37.4551C50.0699 37.5976 50.15 37.7909 50.15 37.9924V42.5515C50.15 42.7531 50.0699 42.9463 49.9274 43.0888C49.7849 43.2313 49.5917 43.3114 49.3902 43.3114H46.3508ZM38.7523 43.3114C38.5508 43.3114 38.3576 43.2313 38.2151 43.0888C38.0726 42.9463 37.9924 42.7531 37.9924 42.5515V37.9924C37.9924 37.7909 38.0726 37.5976 38.2151 37.4551C38.3576 37.3127 38.5508 37.2326 38.7523 37.2326H41.7917C41.9932 37.2326 42.1864 37.3127 42.3289 37.4551C42.4714 37.5976 42.5515 37.7909 42.5515 37.9924V42.5515C42.5515 42.7531 42.4714 42.9463 42.3289 43.0888C42.1864 43.2313 41.9932 43.3114 41.7917 43.3114H38.7523ZM31.1538 43.3114C30.9523 43.3114 30.7591 43.2313 30.6166 43.0888C30.4741 42.9463 30.394 42.7531 30.394 42.5515V37.9924C30.394 37.7909 30.4741 37.5976 30.6166 37.4551C30.7591 37.3127 30.9523 37.2326 31.1538 37.2326H34.1932C34.3947 37.2326 34.5879 37.3127 34.7304 37.4551C34.8729 37.5976 34.953 37.7909 34.953 37.9924V42.5515C34.953 42.7531 34.8729 42.9463 34.7304 43.0888C34.5879 43.2313 34.3947 43.3114 34.1932 43.3114H31.1538ZM31.1538 34.953C30.9523 34.953 30.7591 34.873 30.6166 34.7305C30.4741 34.588 30.394 34.3947 30.394 34.1932V31.9136C30.394 31.7121 30.4741 31.5189 30.6166 31.3764C30.7591 31.2339 30.9523 31.1538 31.1538 31.1538H49.3902C49.5917 31.1538 49.7849 31.2339 49.9274 31.3764C50.0699 31.5189 50.15 31.7121 50.15 31.9136V34.1932C50.15 34.3947 50.0699 34.588 49.9274 34.7305C49.7849 34.873 49.5917 34.953 49.3902 34.953H31.1538Z" fill="white"/>
</svg>
