<svg xmlns="http://www.w3.org/2000/svg" width="119" height="119" viewBox="0 0 119 119">
  <g id="Group_3491" data-name="Group 3491" transform="translate(-611 -1197)">
    <path id="Path_11831" data-name="Path 11831" d="M59.5,0A59.5,59.5,0,1,1,0,59.5,59.5,59.5,0,0,1,59.5,0Z" transform="translate(611 1197)" fill="#04d361"/>
    <g id="Group_3495" data-name="Group 3495" transform="translate(2 0.084)">
      <path id="Path_11832" data-name="Path 11832" d="M12.97,12.369a24.042,24.042,0,0,1,1.361-8.928A18.318,18.318,0,0,1,19.316-3.1,25.5,25.5,0,0,0,24.14-8.35a8.221,8.221,0,0,0,1.2-4.264q0-6.766-6.246-6.766a6.334,6.334,0,0,0-4.744,1.822,7.149,7.149,0,0,0-1.862,5.025H.879Q.959-20.18,5.823-24.5T19.1-28.828q8.488,0,13.172,4.1t4.684,11.59A14.1,14.1,0,0,1,35.43-6.708,26.472,26.472,0,0,1,30.105,0L26.862,3.081a10.981,10.981,0,0,0-3.483,6.846l-.16,2.442ZM11.809,24.66a5.857,5.857,0,0,1,1.822-4.424,6.474,6.474,0,0,1,4.664-1.742,6.474,6.474,0,0,1,4.664,1.742,5.857,5.857,0,0,1,1.822,4.424A5.809,5.809,0,0,1,23,29.024a6.484,6.484,0,0,1-4.7,1.722,6.484,6.484,0,0,1-4.7-1.722A5.809,5.809,0,0,1,11.809,24.66Z" transform="translate(651.121 1255.744)" fill="#fff"/>
      <path id="Path_11846" data-name="Path 11846" d="M5.635-12.621a9.458,9.458,0,0,1,.535-3.512,7.206,7.206,0,0,1,1.961-2.575,10.03,10.03,0,0,0,1.9-2.063,3.234,3.234,0,0,0,.472-1.677q0-2.662-2.457-2.662a2.492,2.492,0,0,0-1.866.717,2.812,2.812,0,0,0-.732,1.977H.879a6.066,6.066,0,0,1,1.945-4.709,7.578,7.578,0,0,1,5.221-1.7,7.61,7.61,0,0,1,5.182,1.614,5.74,5.74,0,0,1,1.843,4.56,5.547,5.547,0,0,1-.6,2.528,10.414,10.414,0,0,1-2.095,2.638L11.1-16.275a4.32,4.32,0,0,0-1.37,2.693l-.063.961ZM5.179-7.786A2.3,2.3,0,0,1,5.9-9.527a2.547,2.547,0,0,1,1.835-.685,2.547,2.547,0,0,1,1.835.685,2.3,2.3,0,0,1,.717,1.74,2.285,2.285,0,0,1-.7,1.717,2.551,2.551,0,0,1-1.851.677A2.551,2.551,0,0,1,5.88-6.069,2.285,2.285,0,0,1,5.179-7.786Z" transform="translate(642.121 1279.432)" fill="#43ff97"/>
      <path id="Path_11847" data-name="Path 11847" d="M4.134-17.738a6.472,6.472,0,0,1,.366-2.4A4.931,4.931,0,0,1,5.842-21.9a6.863,6.863,0,0,0,1.3-1.412,2.213,2.213,0,0,0,.323-1.148q0-1.821-1.681-1.821a1.705,1.705,0,0,0-1.277.49A1.924,1.924,0,0,0,4-24.442H.879A4.151,4.151,0,0,1,2.21-27.664a5.185,5.185,0,0,1,3.573-1.164,5.208,5.208,0,0,1,3.546,1.1A3.928,3.928,0,0,1,10.59-24.6a3.8,3.8,0,0,1-.41,1.73,7.126,7.126,0,0,1-1.433,1.805l-.873.83A2.956,2.956,0,0,0,6.936-18.4l-.043.657Zm-.313,3.309a1.577,1.577,0,0,1,.49-1.191,1.743,1.743,0,0,1,1.256-.469,1.743,1.743,0,0,1,1.256.469,1.577,1.577,0,0,1,.49,1.191,1.564,1.564,0,0,1-.48,1.175,1.745,1.745,0,0,1-1.266.463A1.745,1.745,0,0,1,4.3-13.254,1.564,1.564,0,0,1,3.821-14.429Z" transform="translate(682.69 1290.432)" fill="#43ff97"/>
    </g>
  </g>
</svg>
