<svg width="80" height="80" viewBox="0 0 80 80" fill="none" xmlns="http://www.w3.org/2000/svg">
<path d="M76.2008 0H3.79925C1.70098 0 0 1.70098 0 3.79925V76.2008C0 78.299 1.70098 80 3.79925 80H76.2008C78.299 80 80 78.299 80 76.2008V3.79925C80 1.70098 78.299 0 76.2008 0Z" fill="#5667F9"/>
<path d="M56.6045 60.9242V18.2028C56.6045 15.8912 54.7243 14 52.4017 14H28.2028C25.8912 14 24 15.8802 24 18.2028V60.9353C24 63.2468 25.8802 65.1381 28.2028 65.1381H52.4017C54.7133 65.127 56.6045 63.2468 56.6045 60.9242ZM26.7097 23.7437H53.8838V51.5123H26.7097V23.7437ZM28.2028 16.7097H52.4017C53.2202 16.7097 53.8948 17.3733 53.8948 18.2028V21.0341H26.7097V18.2028C26.7097 17.3733 27.3843 16.7097 28.2028 16.7097ZM26.7097 60.9242V54.2109H53.8838V60.9242C53.8838 61.7427 53.2202 62.4173 52.3907 62.4173H28.2028C27.3843 62.4173 26.7097 61.7537 26.7097 60.9242Z" fill="white"/>
<path d="M43.0451 57.0752H37.5484C36.7963 57.0752 36.188 57.6835 36.188 58.4356C36.188 59.1876 36.7963 59.7959 37.5484 59.7959H43.0451C43.7972 59.7959 44.4055 59.1876 44.4055 58.4356C44.4055 57.6835 43.7972 57.0752 43.0451 57.0752Z" fill="white"/>
</svg>
