<svg xmlns="http://www.w3.org/2000/svg" width="100" height="100" viewBox="0 0 100 100">
  <g id="Group_5277" data-name="Group 5277" transform="translate(-850 -10085)">
    <g id="Group_5276" data-name="Group 5276">
      <rect id="Rectangle_3994" data-name="Rectangle 3994" width="100" height="100" rx="10" transform="translate(850 10085)" fill="#7159c1"/>
      <path id="Union_652" data-name="Union 652" d="M-6138,43a2.178,2.178,0,0,1-1.064-.276,6.591,6.591,0,0,1-2.232-.8l-15.4-8.876a6.7,6.7,0,0,1-3.3-5.769V9.535a6.775,6.775,0,0,1,.7-2.972,2.2,2.2,0,0,1,.19-.434,2.216,2.216,0,0,1,.322-.432,6.608,6.608,0,0,1,2.092-1.931l15.4-8.876a6.558,6.558,0,0,1,6.6,0l15.4,8.876a6.617,6.617,0,0,1,2.091,1.927,2.178,2.178,0,0,1,.321.429v.007a2.243,2.243,0,0,1,.187.417,6.722,6.722,0,0,1,.7,2.989V27.281a6.68,6.68,0,0,1-3.3,5.755l-15.4,8.876a6.536,6.536,0,0,1-2.238.811,2.186,2.186,0,0,1-1.054.276Zm2.2-5.552,14.3-8.243a2.228,2.228,0,0,0,1.1-1.914V10.737l-15.4,8.987Zm-19.8-10.16a2.229,2.229,0,0,0,1.1,1.917l14.3,8.241V19.72l-15.4-8.983ZM-6138,15.88l15.315-8.937L-6136.9-1.249a2.192,2.192,0,0,0-1.1-.292l0-.007a2.2,2.2,0,0,0-1.1.295l-14.216,8.194Z" transform="translate(7038.001 10117.001)" fill="#fff" stroke="rgba(0,0,0,0)" stroke-miterlimit="10" stroke-width="1"/>
    </g>
  </g>
</svg>
